<svg xmlns="http://www.w3.org/2000/svg" viewBox="0 0 400 500">
  <!-- Background -->
  <defs>
    <linearGradient id="bg" x1="0%" y1="0%" x2="100%" y2="100%">
      <stop offset="0%" style="stop-color:#667eea"/>
      <stop offset="100%" style="stop-color:#764ba2"/>
    </linearGradient>
  </defs>
  
  <rect width="400" height="500" fill="url(#bg)"/>
  
  <!-- White container -->
  <rect x="20" y="20" width="360" height="460" rx="20" fill="white"/>
  
  <!-- Logo -->
  <rect x="160" y="40" width="80" height="80" rx="15" fill="url(#bg)"/>
  <text x="200" y="90" text-anchor="middle" fill="white" font-size="30" font-weight="bold">🎵</text>
  
  <!-- Title -->
  <text x="200" y="150" text-anchor="middle" fill="#333" font-size="24" font-weight="bold">FindMyDJ</text>
  <text x="200" y="175" text-anchor="middle" fill="#666" font-size="14">Scannez pour installer l'app</text>
  
  <!-- QR Code placeholder (simplified pattern) -->
  <rect x="100" y="200" width="200" height="200" fill="#f8f9fa" rx="10"/>
  
  <!-- Simplified QR pattern -->
  <g fill="#333">
    <!-- Corner squares -->
    <rect x="110" y="210" width="30" height="30"/>
    <rect x="260" y="210" width="30" height="30"/>
    <rect x="110" y="360" width="30" height="30"/>
    
    <!-- Inner corner squares -->
    <rect x="115" y="215" width="20" height="20" fill="white"/>
    <rect x="265" y="215" width="20" height="20" fill="white"/>
    <rect x="115" y="365" width="20" height="20" fill="white"/>
    
    <!-- Center square -->
    <rect x="185" y="285" width="30" height="30"/>
    <rect x="190" y="290" width="20" height="20" fill="white"/>
    
    <!-- Random pattern to simulate QR -->
    <rect x="150" y="220" width="10" height="10"/>
    <rect x="170" y="220" width="10" height="10"/>
    <rect x="190" y="220" width="10" height="10"/>
    <rect x="230" y="220" width="10" height="10"/>
    <rect x="120" y="250" width="10" height="10"/>
    <rect x="140" y="250" width="10" height="10"/>
    <rect x="180" y="250" width="10" height="10"/>
    <rect x="220" y="250" width="10" height="10"/>
    <rect x="270" y="250" width="10" height="10"/>
    <rect x="160" y="270" width="10" height="10"/>
    <rect x="200" y="270" width="10" height="10"/>
    <rect x="240" y="270" width="10" height="10"/>
    <rect x="130" y="300" width="10" height="10"/>
    <rect x="150" y="300" width="10" height="10"/>
    <rect x="230" y="300" width="10" height="10"/>
    <rect x="250" y="300" width="10" height="10"/>
    <rect x="120" y="330" width="10" height="10"/>
    <rect x="160" y="330" width="10" height="10"/>
    <rect x="200" y="330" width="10" height="10"/>
    <rect x="240" y="330" width="10" height="10"/>
    <rect x="280" y="330" width="10" height="10"/>
    <rect x="150" y="350" width="10" height="10"/>
    <rect x="170" y="350" width="10" height="10"/>
    <rect x="210" y="350" width="10" height="10"/>
    <rect x="250" y="350" width="10" height="10"/>
    <rect x="140" y="380" width="10" height="10"/>
    <rect x="180" y="380" width="10" height="10"/>
    <rect x="220" y="380" width="10" height="10"/>
    <rect x="260" y="380" width="10" height="10"/>
  </g>
  
  <!-- URL -->
  <rect x="40" y="420" width="320" height="25" rx="5" fill="#e3f2fd"/>
  <text x="200" y="437" text-anchor="middle" fill="#333" font-size="12" font-family="monospace">http://localhost:4173</text>
  
  <!-- Instructions -->
  <text x="50" y="465" fill="#666" font-size="12">📱 Ouvrez avec votre téléphone → Ajoutez à l'écran d'accueil</text>
</svg>